<?xml version="1.0" encoding="iso-8859-1"?>
<!-- Generator: Adobe Illustrator 19.0.1, SVG Export Plug-In . SVG Version: 6.00 Build 0)  -->
<svg version="1.1" xmlns="http://www.w3.org/2000/svg" xmlns:xlink="http://www.w3.org/1999/xlink" x="0px" y="0px"
	 viewBox="0 0 128 128" style="enable-background:new 0 0 128 128;" xml:space="preserve">
<g id="_x35_">
	<path id="_x35__1_" style="fill:#171617;" d="M64.595,127.81c-0.162,0-0.321-0.001-0.485-0.004
		c-16.868-0.294-30.978-13.871-30.978-30.266c0-11.018,5.067-19.474,11.236-24.612v-60.58c0-6.736,6.252-12.157,12.985-12.157
		h11.106c6.733,0,12.924,5.421,12.924,12.157v61.021c8.225,6.253,14.118,16.595,12.875,27.494l-0.179,0.001
		C92.343,116.064,79.341,127.81,64.595,127.81z M57.352,8.42c-2.453,0-4.76,1.473-4.76,3.927v65.031l-1.838,1.11
		c-6.389,3.559-9.552,9.969-9.552,19.052c0,11.981,10.556,22.286,23.005,22.502c10.941,0.262,20.657-8.622,21.963-20.06
		c0.983-8.614-3.114-16.489-11.181-21.064l-1.833-1.116V12.347c0-2.454-2.246-3.927-4.699-3.927H57.352z M66.987,83.37V20.765
		h-8.225v63.2c-8.225,2.226-9.785,7.609-9.785,13.925c0,8.308,6.199,15.038,14.503,15.038s14.934-6.73,14.934-15.038
		C78.414,90.953,75.212,85.104,66.987,83.37z"/>
</g>
<g id="Layer_1">
</g>
</svg>
