<?xml version="1.0" encoding="UTF-8" standalone="no"?>
<svg
   xmlns:dc="http://purl.org/dc/elements/1.1/"
   xmlns:cc="http://creativecommons.org/ns#"
   xmlns:rdf="http://www.w3.org/1999/02/22-rdf-syntax-ns#"
   xmlns:svg="http://www.w3.org/2000/svg"
   xmlns="http://www.w3.org/2000/svg"
   width="100%"
   height="100%"
   viewBox="0 0 64 64"
   version="1.1"
   xml:space="preserve"
   style="fill-rule:evenodd;clip-rule:evenodd;stroke-linecap:round;stroke-linejoin:round;stroke-miterlimit:2;"
   id="svg11">
  <metadata
   id="metadata17">
    <rdf:RDF>
      <cc:Work
   rdf:about="">
        <dc:format>image/svg+xml</dc:format>

        <dc:type
   rdf:resource="http://purl.org/dc/dcmitype/StillImage" />

      </cc:Work>

    </rdf:RDF>

  </metadata>

  <defs
   id="defs15" />

  
  <path
   d="M29.85,17.399c0.537,-0.636 1.326,-1.004 2.158,-1.007c0.832,-0.003 1.624,0.359 2.165,0.991c3.699,4.383 10.827,14.236 10.827,25.101c0,7.175 -5.825,13 -13,13c-7.175,0 -13,-5.825 -13,-13c0,-10.681 7.157,-20.651 10.85,-25.085Z"
   style="fill:none;stroke:#222a33;stroke-width:1.5px;"
   id="path3" />

  <path
   d="M41,42.234c0,3.873 -2.217,7.232 -5.451,8.876"
   style="fill:none;stroke:#222a33;stroke-width:1.5px;"
   id="path5" />

  <path
   d="M14,38.152c-4.038,-1.146 -7,-4.863 -7,-9.266c0,-8.177 5.663,-15.792 8.303,-18.898c0.336,-0.38 0.817,-0.598 1.323,-0.601c0.507,-0.003 0.99,0.209 1.33,0.585c2.048,2.362 5.891,7.397 7.53,13.408"
   style="fill:none;stroke:#222a33;stroke-width:1.5px;"
   id="path7" />

  <path
   d="M38.549,23.325c1.663,-5.92 5.478,-10.966 7.503,-13.346c0.337,-0.38 0.821,-0.599 1.33,-0.6c0.508,-0.002 0.993,0.213 1.334,0.59c2.638,3.074 8.284,10.594 8.284,18.917c0,4.403 -2.962,8.12 -7,9.266"
   style="fill:none;stroke:#222a33;stroke-width:1.5px;"
   id="path9" />

</svg>
