<?xml version="1.0" encoding="UTF-8"?>
<!DOCTYPE svg PUBLIC "-//W3C//DTD SVG 1.1//EN" "http://www.w3.org/Graphics/SVG/1.1/DTD/svg11.dtd">
<!-- Creator: CorelDRAW -->
<svg xmlns="http://www.w3.org/2000/svg" xml:space="preserve" width="2048px" height="2048px" style="shape-rendering:geometricPrecision; text-rendering:geometricPrecision; image-rendering:optimizeQuality; fill-rule:evenodd; clip-rule:evenodd"
viewBox="0 0 2048 2048"
 xmlns:xlink="http://www.w3.org/1999/xlink">
 <defs>
  <style type="text/css">
   <![CDATA[
    .fil0 {fill:#EC407A}
    .fil1 {fill:#FFFFFE;fill-rule:nonzero}
   ]]>
  </style>
 </defs>
 <g id="Layer_x0020_1">
  <metadata id="CorelCorpID_0Corel-Layer"/>
  <rect class="fil0" width="2048" height="2048" rx="256.001" ry="256.001"/>
  <path class="fil1" d="M1224.78 622.153c35.5772,-24.8362 77.1001,-37.1256 118.414,-38.2028 34.9831,-0.912993 69.8953,6.20906 100.937,20.55 31.6099,14.602 59.4319,36.7666 79.6134,65.6776 19.7752,28.3264 32.0008,62.8158 33.0402,102.638 0.034252,1.34882 0.0555119,3.00473 0.0602363,4.95945 0.137008,53.667 -20.3162,106.351 -52.865,145.877 -33.6827,40.9075 -80.6422,68.3209 -132.131,69.6627 -0.875198,0.022441 -2.07284,0.0366142 -3.5504,0.0401575l-1096.94 0.179528 0 -63.9201 1096.94 -0.179528c0.388583,0 1.06299,-0.0141732 2.04567,-0.0401575 31.7374,-0.826772 61.7953,-19.0748 84.2552,-46.3512 23.5961,-28.6536 38.4237,-66.6815 38.3268,-105.268 -0.0011811,-0.84567 -0.022441,-1.99961 -0.0614174,-3.45591 -0.689764,-26.4484 -8.64804,-49.1233 -21.5091,-67.5449 -13.3736,-19.161 -32.2843,-34.0677 -54.0461,-44.1213 -22.3311,-10.3158 -47.4473,-15.4394 -72.6119,-14.7827 -29.2654,0.762993 -58.5012,9.34371 -83.3221,26.6717l-36.5953 -52.389z"/>
  <path class="fil1" d="M1511.82 1404.78c24.5953,17.1685 51.1772,24.7831 77.2028,24.7831 24.5339,0 48.6532,-6.74292 70.2556,-18.6177 22.0807,-12.1382 41.465,-29.4508 56.015,-50.2949 17.3634,-24.874 27.8906,-54.952 27.8906,-87.3981 0,-38.6008 -15.8646,-79.4953 -41.4496,-110.003 -22.2638,-26.5477 -51.5174,-44.5949 -82.9926,-44.6752l-1347.39 0.16063 0 -63.9201 1347.39 -0.16063c52.2178,0.134646 98.4969,27.3957 132.122,67.4871 34.8709,41.5796 56.4922,97.7446 56.4922,151.112 0,45.9307 -14.9728,88.6099 -39.6744,123.993 -20.2984,29.0776 -47.1402,53.1189 -77.5713,69.8481 -30.9107,16.9937 -65.602,26.6398 -101.087,26.6398 -38.3303,0 -77.5075,-11.2335 -113.798,-36.5658l36.5953 -52.3878z"/>
  <path class="fil1" d="M911.731 590.848c34.1469,-23.8465 73.4741,-35.439 111.079,-35.439 25.5461,0 50.628,5.39174 73.128,15.9673 23.0421,10.8307 43.1504,27.0638 58.1138,48.4914 17.0232,24.3756 27.1973,54.8953 27.1973,91.0867l-0.126378 0 -0.0011811 0.338977c-0.15,39.6449 -20.0528,79.0701 -49.2532,108.161 -29.2713,29.1579 -68.6315,48.8091 -107.594,48.8091l0 -0.126378 -0.330709 -0.0011811 0 0.126378 -563.489 0 0 -64.1717 563.489 0 0 0.125197 0.330709 0.0011811 0 -0.125197c21.5091,0 44.478,-12.0827 62.4733,-30.0083 18.0638,-17.9953 30.3709,-41.0185 30.4547,-62.7898l0.0011811 -0.338977 -0.126378 0c0,-22.5012 -5.76615,-40.676 -15.4146,-54.4902 -8.31497,-11.9079 -19.6713,-21.0154 -32.7957,-27.1831 -13.6701,-6.4252 -29.4744,-9.70158 -46.0571,-9.70158 -25.311,0 -51.6886,7.73741 -74.4839,23.6575l-36.5953 -52.389z"/>
  <path class="fil1" d="M1233.34 1375.98c8.66694,7.87678 18.6555,13.2354 29.1579,16.7351 13.8012,4.60158 28.7634,6.28583 43.1977,6.29882 14.6303,0.0129921 29.1709,-7.99725 40.6701,-19.4965 12.8823,-12.8835 21.2079,-28.9996 21.2858,-42.5882l0.00236221 -0.784253 -0.126378 0c0,-23.1898 -6.10276,-47.7189 -18.2114,-66.1796 -10.0701,-15.352 -24.6,-26.0634 -43.2461,-26.1697l-0.37441 -0.0011811 0 0.125197 -751.322 0 0 -64.1705 751.322 0 0 0.125197 0.499607 0.0011811 0.125197 0c43.3028,0.248032 75.4867,22.7528 96.6367,54.9969 19.1091,29.1355 28.7421,66.5882 28.7421,101.273l-0.126378 0 -0.00236221 0.910631 0 0.125197c-0.174803,30.5421 -15.7512,63.6237 -39.8339,87.7075 -22.4445,22.4445 -52.8745,38.0764 -86.041,38.0457 -20.5394,-0.0188977 -42.3036,-2.57481 -63.2504,-9.55749 -18.7559,-6.25158 -36.6343,-15.8575 -52.2201,-30.0213l43.115 -47.3752z"/>
 </g>
</svg>
